<svg width="1.2em" height="1.2em" viewBox="0 0 24 24" data-new-api="StarFill24" data-old-api="Star" class="Zi Zi--Star Button-zi" fill="#8590a6" xmlns="http://www.w3.org/2000/svg"><path d="M10.484 3.307c.673-1.168 2.358-1.168 3.032 0l2.377 4.122a.25.25 0 00.165.12l4.655.987c1.319.28 1.84 1.882.937 2.884l-3.186 3.535a.25.25 0 00-.063.193l.5 4.733c.142 1.34-1.222 2.33-2.453 1.782l-4.346-1.938a.25.25 0 00-.204 0l-4.346 1.938c-1.231.549-2.595-.442-2.453-1.782l.5-4.733a.25.25 0 00-.064-.193L2.35 11.42c-.903-1.002-.382-2.604.937-2.884l4.655-.987a.25.25 0 00.164-.12l2.378-4.122z"></path></svg>