<svg width="1.2em" height="1.2em" viewBox="0 0 24 24" data-new-api="HeartFill24" data-old-api="Heart" class="Zi Zi--Heart Button-zi" fill="#8590a6" xmlns="http://www.w3.org/2000/svg"><path d="M12.004 4.934c1.015-.944 2.484-1.618 3.98-1.618 3.48 0 6.53 3.265 6.15 7.614-.11 1.254-.686 2.55-1.458 3.753-.778 1.215-1.79 2.392-2.845 3.419-1.054 1.028-2.168 1.923-3.161 2.566a9.96 9.96 0 01-1.41.777c-.418.182-.862.32-1.268.32s-.848-.137-1.267-.317a9.918 9.918 0 01-1.407-.771c-.992-.64-2.103-1.53-3.156-2.555-1.052-1.024-2.062-2.2-2.84-3.417-.77-1.208-1.346-2.51-1.456-3.775-.38-4.349 2.67-7.614 6.15-7.614 1.484 0 2.983.673 3.988 1.618z" fill-rule="evenodd" clip-rule="evenodd"></path></svg>