<?xml version="1.0" standalone="no"?><!DOCTYPE svg PUBLIC "-//W3C//DTD SVG 1.1//EN" "http://www.w3.org/Graphics/SVG/1.1/DTD/svg11.dtd"><svg t="1664379248020" class="icon" viewBox="0 0 1306 1024" version="1.1" xmlns="http://www.w3.org/2000/svg" p-id="51261" xmlns:xlink="http://www.w3.org/1999/xlink" width="255.078125" height="200"><path d="M0 358.982899c26.09047-186.69181 154.22367-278.298351 318.303739-328.160139 175.675834-53.340517 348.452727-38.266023 510.793432 51.601153 80.590564 44.643694 144.947058 106.681035 176.835411 195.968422 37.686235 104.94167 15.654282 200.02694-53.340517 284.676022-78.851199 96.244846-185.532234 144.947058-304.96861 169.877952-78.851199 16.23407-158.282187 17.973435-237.713175 5.218094-16.813859-2.898941-31.308564-0.579788-46.962847 9.8564-64.936282 43.484117-136.250234 72.473529-213.362069 86.968235-17.393647 3.478729-38.845811 13.914918-51.021364-7.537247-12.755341-22.611741 8.696823-34.787294 20.292588-49.861788 22.611741-30.148988 44.643694-60.297976 66.675647-90.446964 9.8564-13.914918 6.377671-23.191529-8.696823-32.468141-59.718188-36.526659-110.159764-83.489505-140.88854-147.266211C19.7128 473.20118 11.595765 437.25431 0 402.467016 0 387.97231 0 373.477605 0 358.982899z" p-id="51262" fill="#8590a6"></path><path d="M1304.52352 589.158827c-12.755341 37.106447-22.611741 75.952258-40.005388 111.31934-30.148988 60.297976-79.430988 104.361882-136.250234 139.728964-15.654282 9.8564-19.133012 17.973435-8.696823 32.468141 22.031953 30.148988 44.063906 60.297976 66.675647 90.446964 4.638306 6.377671 12.755341 11.015976 15.074494 17.973435 3.478729 9.8564 7.537247 23.191529 4.058518 31.308564-2.898941 6.377671-18.553223 12.755341-26.670259 11.015976-45.80327-11.015976-91.606541-20.872376-135.090658-37.686235-38.266023-14.494706-73.053317-38.266023-109.579976-56.239458-8.117035-4.058518-19.133012-6.957459-27.829835-5.797882-114.218282 16.813859-226.697198 10.436188-335.697386-28.989412-38.266023-13.914918-74.792682-33.047929-112.478917-49.861788 0.579788-2.319153 1.159576-4.058518 1.739365-6.377671 34.787294 0 69.574588 1.739365 103.782093-0.579788 149.005575-8.696823 285.835598-53.340517 400.633668-151.904517 124.65447-107.260823 180.893928-241.191904 143.207693-406.43155-0.579788-3.478729-0.579788-6.957459-1.739365-13.335129 100.303364 62.037341 177.415199 136.830023 195.968422 256.846186 0.579788 3.478729 2.319153 6.957459 3.478729 9.8564C1304.52352 551.472592 1304.52352 570.605603 1304.52352 589.158827z" p-id="51263" fill="#8590a6"></path></svg>