<svg width="40" height="40" viewBox="0 0 40 40" class="GlobalWriteV2-navIcon" fill="#056de8" xmlns="http://www.w3.org/2000/svg"><g fill="#06F" fill-rule="evenodd"><circle cx="20" cy="20" r="20" opacity=".12"></circle><path d="M23.487 10.463c1.896 0 2.583.193 3.277.555a3.824 3.824 0 011.607 1.573c.371.678.569 1.35.569 3.206v8.472c0 1.855-.198 2.527-.569 3.205a3.824 3.824 0 01-1.607 1.573c-.694.363-1.381.556-3.277.556h-6.96c-1.895 0-2.583-.193-3.276-.556a3.824 3.824 0 01-1.608-1.573c-.37-.678-.568-1.35-.568-3.205v-8.472c0-1.855.197-2.528.568-3.206.37-.678.915-1.21 1.608-1.573.693-.362 1.38-.556 3.277-.556h6.959zm0 2.08h-6.96c-1.407 0-1.836.081-2.273.31a1.72 1.72 0 00-.735.72c-.234.427-.317.847-.317 2.224v8.472c0 1.377.083 1.796.317 2.224.172.316.412.551.735.72.437.229.866.31 2.274.31h6.959c1.407 0 1.836-.081 2.274-.31a1.72 1.72 0 00.735-.72c.234-.428.317-.847.317-2.224v-8.472c0-1.377-.083-1.797-.317-2.225a1.72 1.72 0 00-.735-.72c-.438-.228-.867-.309-2.274-.309zm-1.991 9.778v1.873h-5.955V22.32h5.955zm2.977-3.328v1.872h-8.932v-1.872h8.932zm0-3.33v1.873h-8.932v-1.872h8.932z" fill-rule="nonzero"></path></g></svg>