<svg width="40" height="40" viewBox="0 0 40 40" class="GlobalWriteV2-navIcon" fill="#efc710" xmlns="http://www.w3.org/2000/svg"><g fill="none" fill-rule="evenodd"><circle cx="20" cy="20" r="20" fill="#F4C807" opacity=".12"></circle><path d="M6 6h28v28H6z"></path><path fill="#F4C807" d="M20.406 11.772l-2.172 2.176h-2.29c-1.438 0-1.875.085-2.322.324-.33.176-.575.422-.751.752-.24.448-.324.886-.324 2.326v7.12c0 1.44.085 1.878.324 2.326.176.33.421.576.75.752.421.225.834.314 2.08.323l7.35.001c1.438 0 1.876-.084 2.323-.324.33-.176.575-.422.751-.752.24-.448.324-.886.324-2.326v-4.905l2.172-2.175v7.08c0 1.94-.202 2.643-.58 3.352a3.95 3.95 0 01-1.643 1.645c-.708.379-1.41.58-3.346.58h-7.108c-1.936 0-2.639-.201-3.347-.58a3.95 3.95 0 01-1.642-1.645c-.378-.71-.58-1.413-.58-3.352v-7.12c0-1.94.202-2.643.58-3.352a3.95 3.95 0 011.642-1.645c.708-.379 1.41-.58 3.347-.58h4.462zm6.908-2.053c.384.116.747.338 1.168.759l.188.189c.42.421.642.785.758 1.17a1.98 1.98 0 010 1.163c-.116.385-.337.749-.758 1.17l-6.9 6.911c-.62.622-.827.81-1.078 1.004-.251.193-.496.34-.784.47-.288.131-.553.226-1.392.48l-1.088.332a1.303 1.303 0 01-1.625-1.629l.33-1.09c.255-.84.35-1.104.48-1.393.13-.29.277-.534.47-.785.193-.252.381-.46 1.001-1.081l6.9-6.911c.42-.421.784-.643 1.168-.76a1.97 1.97 0 011.162 0zm-3.204 4.096l-4.797 4.805c-.547.548-.709.723-.852.91-.112.146-.19.276-.265.443-.097.214-.175.44-.4 1.182l-.094.31.31-.095c.74-.225.965-.303 1.179-.4.167-.076.297-.154.442-.266.187-.143.361-.305.909-.853l4.797-4.805-1.23-1.23zm2.546-2.43c-.109.033-.23.11-.443.324l-.874.875 1.228 1.231.875-.876c.213-.213.29-.334.323-.444a.24.24 0 000-.153c-.033-.11-.11-.23-.323-.445l-.189-.188c-.213-.214-.334-.291-.443-.325a.238.238 0 00-.154 0z" fill-rule="nonzero"></path></g></svg>