<svg width="40" height="40" viewBox="0 0 40 40" class="GlobalWriteV2-navIcon" fill="#fa981a" xmlns="http://www.w3.org/2000/svg"><g fill="#FF9607" fill-rule="evenodd"><circle cx="20" cy="20" r="20" opacity=".12"></circle><path d="M24.233 24.777v-9.555c0-.942-.748-1.706-1.67-1.706H13.61c-.922 0-1.67.764-1.67 1.707v9.554c0 .943.748 1.707 1.67 1.707h8.954c.921 0 1.669-.764 1.669-1.707zm3.478-10.349a2.302 2.302 0 013.297.243c.367.434.57.989.57 1.563v7.532c0 1.32-1.047 2.389-2.337 2.389a2.308 2.308 0 01-1.53-.583l-1.475-1.306v.512c0 2.073-1.644 3.753-3.672 3.753H13.61c-2.028 0-3.672-1.68-3.672-3.753v-9.555c0-2.074 1.644-3.754 3.672-3.754h8.954c2.028 0 3.672 1.68 3.672 3.754v.51l1.475-1.305zm-1.475 7.13l2.786 2.466a.33.33 0 00.219.083.338.338 0 00.334-.341v-7.532a.346.346 0 00-.082-.223.329.329 0 00-.47-.035l-2.787 2.466v3.116z" fill-rule="nonzero"></path></g></svg>