<svg width="40" height="40" viewBox="0 0 40 40" class="GlobalWriteV2-navIcon" fill="#45c2c3" xmlns="http://www.w3.org/2000/svg"><g fill="#26BFBF" fill-rule="evenodd"><circle cx="20" cy="20" r="20" opacity=".12"></circle><path d="M21.987 11.686v2.169h-6.125c-1.43 0-1.863.064-2.297.306-.332.128-.574.383-.74.702-.255.447-.332.893-.332 2.297v7.018c0 1.442.09 1.876.332 2.297.166.345.408.587.74.766.434.23.868.319 2.297.319h7.018c1.43 0 1.863-.077 2.297-.32.345-.165.587-.408.766-.74.216-.408.296-.816.305-2.054l.001-6.316.025.025h2.17v6.074c0 1.914-.217 2.616-.587 3.318a3.92 3.92 0 01-1.634 1.62c-.689.383-1.403.575-3.317.575h-7.018c-1.915 0-2.616-.204-3.318-.575a3.891 3.891 0 01-1.62-1.62c-.384-.702-.575-1.404-.575-3.318v-7.018c0-1.914.204-2.629.574-3.318a3.996 3.996 0 011.62-1.633c.703-.383 1.404-.574 3.318-.574h6.1zm1.889 6.954c1.059 1.06 1.059 2.807 0 3.88l-.039.038a2.719 2.719 0 01-3.879 0l-2.45-2.553a.801.801 0 00-1.123 0l-.05.052c-.32.357-.32.893 0 1.212a.75.75 0 00.726.217c.51-.128 1.047.23 1.149.74a.946.946 0 01-.727 1.148 2.649 2.649 0 01-2.527-.74 2.796 2.796 0 010-3.905l.038-.025c1.098-1.085 2.808-1.085 3.892 0l2.463 2.488a.764.764 0 001.11 0l.038-.025a.855.855 0 000-1.187.876.876 0 00-.74-.217c-.51.128-1.02-.204-1.148-.727-.128-.51.204-1.021.727-1.149l.013-.013a2.703 2.703 0 012.527.766zm4.338-9.315v2.578h2.578v1.722h-2.578v2.59h-1.723v-2.602h-2.59v-1.71h2.59V9.325h1.723z" fill-rule="nonzero"></path></g></svg>