<?xml version="1.0" standalone="no"?><!DOCTYPE svg PUBLIC "-//W3C//DTD SVG 1.1//EN" "http://www.w3.org/Graphics/SVG/1.1/DTD/svg11.dtd"><svg t="1664807748095" class="icon" viewBox="0 0 1024 1024" version="1.1" xmlns="http://www.w3.org/2000/svg" p-id="28466" xmlns:xlink="http://www.w3.org/1999/xlink" width="32" height="32"><path d="M661.333333 99.776l0 76.586667c149.333333 67.989333 225.365333 206.165333 225.365333 365.674667 0 226.816-183.061333 410.645333-409.856 410.645333-226.773333 0-405.930667-183.829333-405.930667-410.645333C70.912 382.869333 170.666667 244.906667 298.666667 176.789333L298.666667 100.16C106.666667 173.184 1.984 343.530667 1.984 542.016c0 265.088 212.714667 479.936 477.781333 479.936 265.045333 0 477.333333-214.848 477.333333-479.936C957.098667 343.210667 853.333333 172.608 661.333333 99.776z" p-id="28467" fill="#8590a6"></path><path d="M512 405.333333c0 23.552-19.114667 42.666667-42.666667 42.666667l0 0c-23.552 0-42.666667-19.114667-42.666667-42.666667L426.666667 42.666667c0-23.552 19.114667-42.666667 42.666667-42.666667l0 0c23.552 0 42.666667 19.114667 42.666667 42.666667L512 405.333333z" p-id="28468" fill="#8590a6"></path></svg>