<svg width="24" height="24" viewBox="0 0 24 24" data-new-api="UserPencilFill24" data-old-api="Creator" class="Zi Zi--Creator CreatorEntrance-creatorIcon" fill="#444444" xmlns="http://www.w3.org/2000/svg"><path d="M6.5 7.5A5.5 5.5 0 0112 2a5.5 5.5 0 015.5 5.5A5.5 5.5 0 0112 13a5.5 5.5 0 01-5.5-5.5zm8.11 9.498c.404-.408.91-1 1.17-1.51.067-.133.13-.284.165-.442.034-.15.058-.373-.033-.602a.872.872 0 00-.545-.509 1.37 1.37 0 00-.604-.043c-.657.082-1.518.184-2.373.24-.867.055-1.68.058-2.254-.041-1.189-.204-2.045-.19-2.781.087-.722.272-1.25.773-1.804 1.302-1.533 1.462-2.434 3.311-2.65 4.831-.11.78.535 1.339 1.199 1.339h8.1a.96.96 0 00.955-.929c.06-1.767.7-2.96 1.456-3.723zm6.504-1.568a.75.75 0 10-1.228-.86l-2.903 4.146a.75.75 0 001.229.86l2.902-4.146zm-4.227 6.099a.75.75 0 10-1.241-.842l-.267.392a.75.75 0 001.242.842l.266-.392z" fill-rule="evenodd" clip-rule="evenodd"></path></svg>